<svg width="202" height="47" viewBox="0 0 202 47" fill="none" xmlns="http://www.w3.org/2000/svg">
<path d="M19.0229 27.795C19.2645 27.795 19.4983 27.8641 19.7243 28.0012C19.9503 28.1364 20.1082 28.3386 20.1997 28.608C20.2903 28.9114 20.4189 29.3879 20.5855 30.0355C20.7511 30.6812 20.9021 31.2987 21.0375 31.8871C21.1719 32.4764 21.2401 32.8459 21.2401 32.9957C21.2401 33.4157 20.9985 33.6569 20.5153 33.7191C20.0322 33.7483 19.3444 33.8076 18.454 33.8981C17.5656 33.9895 16.6002 34.0799 15.5589 34.1704C14.5165 34.2618 13.5131 34.3522 12.5468 34.4426C11.5804 34.5341 10.7641 34.6089 10.0997 34.6682C9.43437 34.7285 9.02621 34.7577 8.87619 34.7577C8.66577 34.7577 8.4534 34.7285 8.24104 34.6682C8.03062 34.6089 7.83384 34.5029 7.65265 34.3493C7.20065 33.867 6.69506 33.2203 6.13687 32.4083C5.57771 31.5944 5.14811 30.9166 4.8471 30.374C4.75553 30.1931 4.69513 29.9966 4.66396 29.7866C4.63473 29.5746 4.62109 29.3928 4.62109 29.242C4.62109 29.1234 4.62694 28.9804 4.64058 28.8142C4.65616 28.6488 4.66396 28.5652 4.66396 28.5652C4.78573 27.1785 4.98153 25.6343 5.25234 23.9325C5.52511 22.2288 5.83391 20.4735 6.17974 18.6658C6.52751 16.8561 6.88989 15.093 7.26689 13.3757C7.64583 11.6564 8.0316 10.0889 8.42418 8.67298C8.81579 7.25517 9.19279 6.07851 9.5542 5.14497C9.70714 4.75405 10.0257 4.55762 10.5089 4.55762C10.7787 4.55762 11.2229 4.62569 11.8415 4.75988C12.462 4.89505 13.1118 5.05356 13.7898 5.23444C14.4698 5.41628 15.0065 5.58257 15.3991 5.73232C15.7907 5.88305 15.9875 6.18354 15.9875 6.63475C15.9875 6.69699 15.9797 6.76603 15.9641 6.84091C15.9485 6.91676 15.9407 6.95371 15.9407 6.95371C15.3066 9.18449 14.7104 11.46 14.1522 13.7802C13.593 16.1015 13.1021 18.2642 12.6793 20.2684C12.2584 22.2735 11.9272 23.9539 11.6856 25.3095C11.444 26.666 11.3233 27.4946 11.3233 27.795C11.3233 28.1587 11.5191 28.3396 11.9116 28.3396C12.0022 28.3396 12.3334 28.3104 12.9053 28.2501C13.4791 28.1879 14.1658 28.1276 14.9666 28.0673C15.7664 28.008 16.5447 27.9487 17.3006 27.8884C18.0566 27.8262 18.6304 27.795 19.0229 27.795Z" fill="white"/>
<path d="M35.7334 33.8085C35.4315 33.6588 35.2279 33.4779 35.1217 33.2679C35.0174 33.0559 34.9502 32.8439 34.9191 32.6338L34.7827 30.7356C34.7827 30.4945 34.7223 30.3739 34.6034 30.3739C34.5119 30.3739 34.4213 30.4497 34.3307 30.5995C33.5455 31.8656 32.7223 32.875 31.8602 33.6296C31 34.3823 30.2236 34.7576 29.5301 34.7576C28.4721 34.7576 27.4152 34.3745 26.3582 33.6063C25.3032 32.8361 24.4352 31.8267 23.7553 30.5761C23.0744 29.3266 22.7344 27.9924 22.7344 26.5736C22.7344 24.6754 22.9536 22.8375 23.3929 21.0579C23.8313 19.2793 24.4732 17.6738 25.3178 16.2424C26.1614 14.8109 27.196 13.6742 28.4195 12.8311C29.6431 11.986 31.039 11.563 32.6084 11.563C33.3643 11.563 34.3151 11.7371 35.4607 12.0842C36.6082 12.4323 37.8162 12.9001 39.0845 13.4884C40.3548 14.0748 41.5326 14.7293 42.6187 15.4527C42.9792 15.6628 43.1604 15.9798 43.1604 16.4019C43.1604 16.4621 43.1448 16.5604 43.1136 16.6975C43.0844 16.8326 43.0708 16.8997 43.0708 16.8997C42.4678 19.0391 41.9846 21.1863 41.6212 23.3412C41.2598 25.4961 40.9958 27.5013 40.8302 29.3548C40.6636 31.2092 40.5652 32.7388 40.5341 33.9447C40.4737 34.427 40.2184 34.6682 39.7664 34.6682C39.3739 34.6682 38.8829 34.6088 38.2935 34.4892C37.7032 34.3677 37.1596 34.2393 36.6608 34.1042C36.164 33.967 35.8552 33.8688 35.7334 33.8085ZM33.9215 26.169C34.2537 25.8656 34.4495 25.5185 34.5099 25.1266C34.6317 24.5256 34.7681 23.8488 34.9191 23.0961C35.0691 22.3415 35.2201 21.6102 35.3711 20.9023C35.5211 20.1924 35.6419 19.5817 35.7334 19.0702C35.824 18.5568 35.8698 18.2553 35.8698 18.1639C35.8698 17.8041 35.7032 17.5629 35.3711 17.4404C34.7086 17.1993 34.1797 17.0787 33.7851 17.0787C33.0623 17.0787 32.4145 17.4112 31.8407 18.0744C31.266 18.7386 30.7828 19.5681 30.3912 20.5639C29.9986 21.5577 29.7035 22.5817 29.5067 23.6368C29.3118 24.6929 29.2144 25.6118 29.2144 26.3946C29.2144 27.0559 29.2816 27.5907 29.4171 27.9972C29.5515 28.4047 29.7259 28.6079 29.9392 28.6079C30.4224 28.6079 31.04 28.3531 31.794 27.8416C32.5499 27.3282 33.2591 26.771 33.9215 26.169Z" fill="white"/>
<path d="M64.2643 13.1033C64.7183 13.2823 64.9463 13.5536 64.9463 13.9163C64.9463 14.0077 64.9307 14.1059 64.8995 14.2119C64.8703 14.316 64.8566 14.3675 64.8566 14.3675C64.3423 16.0245 63.8883 17.7808 63.4967 19.6342C63.1041 21.4887 62.7719 23.3208 62.4992 25.1305C62.2284 26.9382 62.017 28.6108 61.864 30.1483C61.713 31.6837 61.6234 32.9489 61.5952 33.9447C61.5952 34.1547 61.526 34.3356 61.3887 34.4853C61.2532 34.6361 61.0808 34.7109 60.8704 34.7109C60.5665 34.7109 60.1573 34.6594 59.643 34.5554C59.1306 34.4494 58.6415 34.3288 58.174 34.1936C57.7064 34.0565 57.3674 33.9437 57.1569 33.8552C56.6738 33.6743 56.3708 33.2669 56.249 32.6338C56.2198 32.4529 56.1906 32.1359 56.1594 31.6847C56.1282 31.2316 56.098 30.8241 56.0698 30.4633C56.0698 30.1317 55.9938 29.9654 55.8438 29.9654C55.7814 29.9654 55.7201 30.0111 55.6606 30.1016C55.6002 30.193 55.571 30.2377 55.571 30.2377C54.7547 31.5943 53.8721 32.6951 52.9213 33.5401C51.9706 34.3832 51.0714 34.8043 50.2249 34.8043C49.3491 34.8043 48.4285 34.4503 47.4622 33.7424C46.4958 33.0325 45.6795 32.135 45.0151 31.0507C44.3527 29.9645 44.0215 28.8199 44.0215 27.616C44.0215 26.2293 44.1267 24.8037 44.3371 23.3412C44.5495 21.8786 44.8144 20.455 45.132 19.0702C45.4486 17.6835 45.7876 16.4242 46.149 15.2933C46.5124 14.1633 46.829 13.2511 47.0998 12.5588C47.281 12.1076 47.584 11.8819 48.0077 11.8819C48.2181 11.8819 48.6243 11.987 49.2273 12.197C49.8323 12.4071 50.4597 12.6404 51.1094 12.8972C51.7582 13.1539 52.2492 13.3873 52.5823 13.5973C52.9428 13.8103 53.124 14.0972 53.124 14.457C53.124 14.6077 53.1084 14.7438 53.0772 14.8654C53.048 14.985 53.0343 15.0443 53.0343 15.0443C52.8239 15.7085 52.5667 16.5915 52.2628 17.6932C51.9608 18.7931 51.6666 19.961 51.3783 21.1979C51.0919 22.4329 50.8581 23.5998 50.6769 24.6987C50.4976 25.7985 50.408 26.6805 50.408 27.3437C50.408 28.0672 50.5288 28.429 50.7704 28.429C51.3442 28.429 52.0914 28.0906 53.011 27.4138C53.9325 26.735 54.7703 25.9123 55.5243 24.9476C55.7659 24.616 55.9315 24.2086 56.023 23.7263C56.2334 22.3707 56.4809 20.984 56.7673 19.5681C57.0556 18.1503 57.3654 16.8161 57.6986 15.5655C58.0308 14.316 58.3337 13.2978 58.6065 12.5121C58.7565 12.0327 59.0877 11.7925 59.6001 11.7925C59.8417 11.7925 60.2411 11.8606 60.8003 11.9947C61.3585 12.1299 61.9624 12.2962 62.6122 12.4926C63.261 12.6871 63.8123 12.8913 64.2643 13.1033Z" fill="white"/>
<path d="M74.5908 15.6784C75.4968 14.5328 76.4417 13.5759 77.4236 12.8077C78.4056 12.0405 79.3028 11.6563 80.1162 11.6563C80.69 11.6563 81.2939 11.8382 81.9281 12.2009C82.5613 12.5617 83.1575 13.0285 83.7167 13.6012C84.2748 14.172 84.7346 14.774 85.0961 15.4061C85.4594 16.0391 85.6416 16.642 85.6416 17.2148C85.6416 17.7283 85.5422 18.6336 85.3454 19.9299C85.1506 21.2242 84.9022 22.7091 84.6012 24.3836C84.2992 26.0562 83.967 27.7444 83.6037 29.4481C83.2422 31.1499 82.8799 32.663 82.5165 33.9875C82.4561 34.1693 82.3353 34.3356 82.1541 34.4853C81.9749 34.6361 81.7781 34.711 81.5657 34.711C81.2355 34.711 80.7601 34.6215 80.1396 34.4426C79.521 34.2617 78.9014 34.0497 78.2809 33.8085C77.6623 33.5674 77.1879 33.3563 76.8586 33.1745C76.4943 32.9333 76.3131 32.5871 76.3131 32.1359C76.3131 32.0455 76.3209 31.9551 76.3365 31.8636C76.3521 31.7732 76.3599 31.7275 76.3599 31.7275C76.3599 31.7275 76.4349 31.3969 76.5859 30.7356C76.7359 30.0724 76.9327 29.2283 77.1743 28.2034C77.4158 27.1765 77.6496 26.0912 77.8756 24.9477C78.1016 23.8021 78.2897 22.7247 78.4406 21.7153C78.5936 20.7039 78.6705 19.9133 78.6705 19.3425C78.6705 18.4975 78.5186 18.0744 78.2146 18.0744C77.8815 18.0744 77.2931 18.3234 76.4495 18.8213C75.6049 19.3192 74.7593 20.0057 73.9128 20.879C73.7024 21.089 73.5358 21.3224 73.414 21.5791C73.2942 21.8358 73.2046 22.0848 73.1452 22.326C72.8724 23.6825 72.5841 25.0994 72.2801 26.5775C71.9781 28.0536 71.6995 29.4394 71.4423 30.7356C71.1871 32.0299 70.9689 33.0996 70.7877 33.9447C70.6679 34.427 70.3805 34.6682 69.9266 34.6682C69.5934 34.6682 69.1024 34.5777 68.4537 34.3959C67.8068 34.215 67.1726 34.0186 66.5521 33.8085C65.9335 33.5985 65.5195 33.4487 65.3091 33.3573C64.9165 33.1453 64.7207 32.8127 64.7207 32.3615C64.7207 32.3022 64.7879 31.8656 64.9233 31.0507C65.0578 30.2368 65.2312 29.1749 65.4416 27.865C65.6539 26.5532 65.8897 25.1363 66.1469 23.6135C66.404 22.0916 66.6534 20.5853 66.895 19.0936C67.1366 17.5999 67.3548 16.2501 67.5496 15.0443C67.7464 13.8385 67.8896 12.9351 67.9783 12.3332C68.0689 11.8197 68.3718 11.563 68.8862 11.563C69.0674 11.563 69.4522 11.6165 70.0396 11.7225C70.6289 11.8294 71.2407 11.95 71.8749 12.0842C72.5081 12.2194 72.962 12.3477 73.2348 12.4693C73.7774 12.7105 74.0492 13.1179 74.0492 13.6907C74.0492 13.9007 74.057 14.172 74.0726 14.5036C74.0881 14.8362 74.0959 15.1678 74.0959 15.4994C74.0959 15.7698 74.1554 15.904 74.2752 15.904C74.3346 15.904 74.4018 15.867 74.4778 15.7912C74.5528 15.7163 74.5908 15.6784 74.5908 15.6784Z" fill="white"/>
<path d="M103.718 3.92358C103.928 3.50154 104.275 3.28955 104.758 3.28955C105.031 3.28955 105.514 3.38096 106.208 3.56183C106.901 3.74368 107.58 3.93331 108.246 4.12974C108.91 4.32423 109.333 4.48176 109.512 4.6004C109.875 4.81336 110.058 5.10023 110.058 5.46004C110.058 5.49115 110.05 5.54464 110.034 5.61952C110.019 5.69537 110.011 5.73232 110.011 5.73232C109.618 6.81659 109.157 8.35402 108.628 10.3456C108.1 12.3352 107.549 14.6185 106.975 17.1954C106.404 19.7705 105.861 22.4914 105.347 25.3562C104.834 28.219 104.397 31.0663 104.033 33.8981C103.973 34.3804 103.702 34.6216 103.219 34.6216C102.977 34.6216 102.607 34.57 102.109 34.466C101.61 34.36 101.119 34.2316 100.636 34.0809C100.152 33.9311 99.7901 33.8106 99.5485 33.7191C99.0653 33.5072 98.8091 33.1143 98.7808 32.5405L98.6912 31.0508C98.6912 30.7503 98.6143 30.5996 98.4613 30.5996C98.3727 30.5996 98.2675 30.6754 98.1457 30.8252C97.4209 31.8812 96.6504 32.8002 95.835 33.583C95.0216 34.3668 94.253 34.7577 93.5282 34.7577C92.4703 34.7577 91.4211 34.359 90.3798 33.5597C89.3374 32.7613 88.4763 31.7373 87.7963 30.4868C87.1183 29.2342 86.7793 27.9302 86.7793 26.5737C86.7793 24.7066 87.0053 22.8842 87.4573 21.1047C87.9093 19.3261 88.5571 17.7206 89.4017 16.2891C90.2482 14.8577 91.2526 13.7131 92.4138 12.8545C93.5769 11.9939 94.8696 11.5631 96.2909 11.5631C96.8023 11.5631 97.3975 11.6837 98.0756 11.9248C98.7555 12.166 99.4588 12.483 100.184 12.8739C100.184 12.8739 100.228 12.8973 100.32 12.9439C100.411 12.9887 100.486 13.0101 100.546 13.0101C100.819 13.0101 101 12.8146 101.092 12.4227C102.058 8.41431 102.933 5.58062 103.718 3.92358ZM97.9664 26.1691C98.2957 25.8657 98.4925 25.5186 98.5548 25.1267C98.6737 24.5257 98.8091 23.8489 98.9601 23.0962C99.1101 22.3416 99.2611 21.6103 99.4121 20.9024C99.565 20.1925 99.6858 19.5818 99.7745 19.0703C99.8651 18.5569 99.9109 18.2554 99.9109 18.164C99.9109 17.8042 99.7452 17.563 99.416 17.4405C98.7506 17.1993 98.2217 17.0787 97.8301 17.0787C97.1053 17.0787 96.4555 17.4113 95.8818 18.0745C95.307 18.7387 94.8238 19.5682 94.4322 20.564C94.0396 21.5578 93.7445 22.5818 93.5477 23.6369C93.3529 24.693 93.2555 25.6119 93.2555 26.3947C93.2555 27.056 93.3227 27.5908 93.4581 27.9973C93.5925 28.4048 93.7669 28.608 93.9802 28.608C94.4634 28.608 95.081 28.3532 95.835 27.8417C96.5909 27.3283 97.3011 26.7711 97.9664 26.1691Z" fill="white"/>
<path d="M117.388 15.091C117.689 14.7312 118.103 14.2936 118.631 13.7802C119.161 13.2667 119.734 12.8145 120.353 12.4226C120.974 12.0317 121.555 11.8353 122.099 11.8353C122.521 11.8353 122.793 12.0764 122.913 12.5588C122.944 12.7999 122.96 13.079 122.96 13.3951C122.96 13.7121 122.96 14.066 122.96 14.457C122.96 15.0618 122.952 15.7036 122.936 16.3824C122.921 17.0592 122.897 17.6991 122.866 18.3001C122.866 18.8427 122.58 19.1587 122.009 19.2492C121.313 19.3717 120.482 19.5526 119.515 19.7937C118.549 20.0349 117.673 20.2906 116.889 20.56C116.618 20.6514 116.407 20.8109 116.254 21.0384C116.103 21.264 115.998 21.4974 115.938 21.7386C115.667 23.0329 115.373 24.4643 115.054 26.0329C114.736 27.5995 114.45 29.0922 114.192 30.51C113.937 31.9259 113.735 33.0714 113.585 33.9447C113.462 34.427 113.175 34.6682 112.723 34.6682C112.451 34.6682 111.997 34.5933 111.364 34.4426C110.729 34.2928 110.095 34.1119 109.462 33.9019C108.828 33.6899 108.36 33.508 108.059 33.3573C107.877 33.2669 107.741 33.1239 107.65 32.9294C107.558 32.733 107.514 32.5278 107.514 32.3149C107.514 32.2244 107.521 32.1272 107.537 32.0231C107.553 31.9171 107.56 31.8636 107.56 31.8636L110.775 12.3332C110.835 12.092 110.962 11.9043 111.157 11.7691C111.354 11.632 111.559 11.563 111.773 11.563C112.014 11.563 112.452 11.6243 113.086 11.7458C113.719 11.8654 114.345 12.0016 114.964 12.1542C115.585 12.305 115.985 12.4246 116.164 12.5121C116.618 12.7251 116.846 13.0722 116.846 13.5545L116.889 14.9121C116.889 15.1824 116.949 15.3166 117.072 15.3166C117.131 15.3166 117.237 15.2417 117.388 15.091Z" fill="white"/>
<path d="M137.995 12.4226C138.207 12.0025 138.54 11.7925 138.992 11.7925C139.293 11.7925 139.753 11.8839 140.372 12.0648C140.992 12.2437 141.62 12.446 142.254 12.6716C142.887 12.8972 143.355 13.1014 143.657 13.2823C143.989 13.433 144.155 13.7199 144.155 14.1419C144.155 14.2333 144.14 14.3461 144.109 14.4803C144.079 14.6155 144.066 14.6826 144.066 14.6826C143.824 15.5286 143.537 16.6975 143.205 18.1911C142.871 19.6829 142.531 21.3175 142.184 23.0961C141.838 24.8728 141.491 26.6728 141.143 28.4951C140.797 30.3184 140.473 31.9988 140.169 33.5362C140.049 34.2315 139.808 35.1048 139.444 36.1579C139.083 37.213 138.548 38.2604 137.839 39.3009C137.13 40.3404 136.208 41.2146 135.076 41.9226C133.943 42.6305 132.532 42.9845 130.841 42.9845C130.266 42.9845 129.609 42.8853 128.869 42.6888C128.131 42.4944 127.414 42.2386 126.718 41.9226C126.024 41.6055 125.42 41.2973 124.906 40.9968C124.514 40.7556 124.318 40.4386 124.318 40.0477C124.318 39.8376 124.385 39.4915 124.52 39.0091C124.658 38.5268 124.802 38.0659 124.953 37.6283C125.103 37.1926 125.194 36.9437 125.226 36.8814C125.376 36.5207 125.617 36.3408 125.95 36.3408C126.069 36.3408 126.167 36.3544 126.243 36.3835C126.318 36.4147 126.356 36.4302 126.356 36.4302C127.08 36.7307 127.729 36.9485 128.304 37.0837C128.878 37.2208 129.377 37.2899 129.8 37.2899C130.616 37.2899 131.333 37.0565 131.951 36.5897C132.569 36.1229 133.074 35.5336 133.467 34.8237C133.859 34.1158 134.153 33.3943 134.348 32.6572C134.544 31.9181 134.644 31.2782 134.644 30.7356C134.644 30.6452 134.614 30.5995 134.554 30.5995C134.523 30.5995 134.431 30.6889 134.281 30.8679C133.527 31.8948 132.728 32.7408 131.881 33.404C131.036 34.0652 130.252 34.3959 129.527 34.3959C128.893 34.3959 128.222 34.1926 127.513 33.7852C126.804 33.3787 126.124 32.8439 125.475 32.1826C124.825 31.5194 124.296 30.7735 123.889 29.946C123.481 29.1165 123.277 28.2792 123.277 27.4332C123.277 26.1087 123.383 24.722 123.593 23.2751C123.805 21.8281 124.077 20.419 124.407 19.0469C124.74 17.6757 125.086 16.4242 125.448 15.2933C125.811 14.1633 126.13 13.2511 126.402 12.5588C126.584 12.1076 126.886 11.8819 127.306 11.8819C127.579 11.8819 128.04 12.0025 128.69 12.2437C129.339 12.4849 129.98 12.7416 130.615 13.0139C131.248 13.2842 131.686 13.4943 131.928 13.644C132.229 13.8259 132.38 14.1127 132.38 14.5036C132.38 14.6233 132.356 14.7594 132.31 14.9121C132.265 15.0628 132.243 15.1377 132.243 15.1377C132.033 15.7989 131.777 16.6809 131.476 17.7827C131.174 18.8825 130.887 20.0427 130.615 21.264C130.342 22.4835 130.114 23.6358 129.933 24.722C129.754 25.8063 129.664 26.6805 129.664 27.3437C129.664 28.0361 129.785 28.3823 130.026 28.3823C130.628 28.3823 131.39 28.0283 132.31 27.3204C133.231 26.6125 134.071 25.7917 134.827 24.8582C134.977 24.6773 135.082 24.511 135.143 24.3603C135.202 24.2105 135.248 24.0287 135.279 23.8157C135.46 22.6721 135.694 21.3924 135.98 19.9765C136.269 18.5587 136.585 17.171 136.931 15.8145C137.279 14.4589 137.633 13.328 137.995 12.4226Z" fill="white"/>
<path d="M156.252 34.894C155.376 34.894 154.334 34.6606 153.127 34.1938C151.921 33.727 150.758 33.1105 149.639 32.3423C148.522 31.5721 147.632 30.7193 146.97 29.7828C146.395 28.9407 145.934 27.9537 145.587 26.8227C145.241 25.6927 145.068 24.5696 145.068 23.4542C145.068 21.7378 145.264 19.9835 145.657 18.1913C146.048 16.3972 146.613 14.6857 147.352 13.0569C148.092 11.429 148.967 9.96741 149.978 8.67309C150.991 7.37683 152.115 6.35285 153.353 5.60018C154.592 4.84557 155.92 4.46826 157.339 4.46826C157.884 4.46826 158.594 4.57329 159.47 4.78333C160.345 4.99338 161.272 5.29581 162.252 5.68965C163.234 6.08154 164.155 6.55609 165.015 7.1133C165.877 7.67148 166.587 8.30357 167.147 9.0115C167.705 9.71944 167.984 10.4954 167.984 11.3376C167.984 11.9706 167.908 12.627 167.758 13.3058C167.607 13.9826 167.455 14.5486 167.302 15.0017C167.151 15.4841 166.774 15.7554 166.172 15.8147C165.962 15.8147 165.576 15.8303 165.015 15.8614C164.456 15.8905 163.898 15.9119 163.34 15.9275C162.78 15.9431 162.397 15.9508 162.186 15.9508C161.703 15.9508 161.461 15.6494 161.461 15.0445C161.461 14.8656 161.498 14.5583 161.574 14.1226C161.649 13.685 161.687 13.193 161.687 12.6484C161.687 12.0163 161.551 11.4212 161.278 10.863C161.007 10.3058 160.39 10.0267 159.423 10.0267C158.457 10.0267 157.52 10.3963 156.614 11.1353C155.71 11.8744 154.896 12.877 154.171 14.1421C153.446 15.4082 152.871 16.8251 152.449 18.3936C152.025 19.9602 151.813 21.5871 151.813 23.2753C151.813 25.4146 152.191 26.9151 152.947 27.7757C153.703 28.6344 154.533 29.0632 155.437 29.0632C156.162 29.0632 156.924 28.8007 157.725 28.2736C158.524 27.7446 159.203 27.1339 159.762 26.4415C160.321 25.7472 160.6 25.1423 160.6 24.6289C160.6 24.3877 160.419 24.2671 160.059 24.2671C159.424 24.2983 158.888 24.3138 158.449 24.3138C158.013 24.3138 157.613 24.3138 157.249 24.3138C157.039 24.3138 156.826 24.2467 156.614 24.1116C156.404 23.9744 156.268 23.7848 156.209 23.5436C156.117 23.0331 156.041 22.4458 155.979 21.7816C155.918 21.1184 155.889 20.5758 155.889 20.1557C155.889 19.6422 156.191 19.3408 156.797 19.2494C157.43 19.1589 158.291 19.0918 159.377 19.0471C160.465 19.0033 161.522 18.981 162.549 18.981C162.971 18.981 163.364 18.981 163.725 18.981C164.089 18.981 164.421 18.9955 164.723 19.0237C165.325 19.0549 165.733 19.3417 165.946 19.8834C166.128 20.2753 166.309 20.8403 166.488 21.5793C166.669 22.3184 166.828 23.0341 166.963 23.7265C167.101 24.4188 167.17 24.9012 167.17 25.1735C167.17 25.506 167.109 25.8221 166.987 26.1226C166.716 26.8461 166.294 27.7057 165.72 28.7015C165.146 29.6953 164.421 30.66 163.546 31.5954C162.67 32.529 161.629 33.3128 160.421 33.9449C159.213 34.5779 157.823 34.894 156.252 34.894Z" fill="#F5C555"/>
<path d="M177.13 29.4207C177.823 29.4207 178.449 29.1047 179.008 28.4716C179.566 27.8395 180.049 27.0402 180.457 26.0755C180.864 25.1108 181.174 24.0946 181.385 23.0259C181.597 21.9553 181.704 20.9984 181.704 20.1553C181.704 19.1313 181.544 18.3106 181.225 17.6931C180.907 17.0736 180.447 16.7634 179.845 16.7634C179.211 16.7634 178.622 17.0804 178.076 17.7125C177.533 18.3456 177.042 19.1673 176.603 20.1786C176.167 21.188 175.828 22.2353 175.586 23.3216C175.345 24.4058 175.224 25.3987 175.224 26.3011C175.224 27.2064 175.374 27.9533 175.676 28.5416C175.98 29.128 176.464 29.4207 177.13 29.4207ZM188.313 20.4704V20.696C188.313 21.5109 188.208 22.5066 187.997 23.6833C187.787 24.858 187.446 26.0862 186.976 27.3669C186.509 28.6486 185.897 29.8466 185.141 30.961C184.387 32.0764 183.466 32.9876 182.378 33.6955C181.292 34.4035 180.026 34.7574 178.579 34.7574C177.914 34.7574 177.083 34.6291 176.085 34.3724C175.09 34.1156 174.102 33.7403 173.12 33.2443C172.138 32.7464 171.3 32.1357 170.607 31.4123C169.338 30.0567 168.705 28.0671 168.705 25.4454C168.705 24.4185 168.826 23.2807 169.067 22.0302C169.309 20.7806 169.677 19.5446 170.174 18.3232C170.673 17.1018 171.292 15.9718 172.033 14.9313C172.773 13.8918 173.64 13.0633 174.636 12.4458C175.633 11.8293 176.75 11.52 177.987 11.52C178.774 11.52 179.71 11.6941 180.796 12.0412C181.881 12.3865 182.953 12.8377 184.011 13.3949C185.068 13.9531 185.913 14.5638 186.548 15.227C187.153 15.8289 187.59 16.6195 187.861 17.5997C188.134 18.5799 188.284 19.5368 188.313 20.4704Z" fill="#F5C555"/>
<path d="M196.108 25.1265C196.016 25.5806 195.73 25.8072 195.247 25.8072C195.036 25.8072 194.636 25.7245 194.046 25.5582C193.456 25.3929 192.86 25.212 192.258 25.0176C191.655 24.8211 191.202 24.6616 190.898 24.5391C190.446 24.3582 190.22 23.9965 190.22 23.4539C190.22 23.4257 190.22 23.3955 190.22 23.3644C190.22 23.3333 190.22 23.3177 190.22 23.3177C190.461 21.8425 190.74 20.2526 191.058 18.5489C191.374 16.8452 191.721 15.1512 192.098 13.465C192.477 11.7768 192.87 10.2092 193.275 8.76225C193.682 7.31526 194.082 6.12499 194.475 5.19145C194.687 4.73829 195.021 4.51074 195.473 4.51074C195.654 4.51074 196.039 4.57979 196.626 4.7169C197.215 4.85207 197.849 5.02614 198.527 5.23813C199.207 5.44817 199.775 5.64266 200.23 5.82159C200.591 5.97232 200.772 6.21348 200.772 6.54509C200.772 6.60538 200.756 6.68804 200.725 6.79403C200.696 6.901 200.682 6.95351 200.682 6.95351C200.441 7.70618 200.13 8.73016 199.751 10.0264C199.374 11.3237 198.966 12.794 198.527 14.4374C198.091 16.0789 197.66 17.8196 197.238 19.6575C196.817 21.4964 196.44 23.3197 196.108 25.1265ZM191.171 27.4798C192.196 27.4798 193.155 27.7666 194.046 28.3394C194.937 28.9102 195.383 29.7981 195.383 31.0039C195.383 32.1193 195.05 33.0382 194.385 33.7617C193.723 34.4852 192.817 34.847 191.669 34.847C190.493 34.847 189.639 34.4852 189.109 33.7617C188.582 33.0382 188.318 32.2097 188.318 31.2762C188.318 30.4934 188.463 29.8603 188.751 29.378C189.036 28.8956 189.421 28.4289 189.904 27.9777C190.234 27.6461 190.656 27.4798 191.171 27.4798Z" fill="#F5C555"/>
</svg>
