<svg width="127" height="36" viewBox="0 0 127 36" fill="none" xmlns="http://www.w3.org/2000/svg">
<path d="M4.67656 21.768L9.66856 21.912C10.3726 21.912 11.0526 21.68 11.7086 21.216L12.3566 22.08C12.0366 22.448 11.7806 22.728 11.5886 22.92C11.3966 23.096 11.1086 23.272 10.7246 23.448C10.3566 23.624 9.94056 23.712 9.47656 23.712L4.98856 23.52C2.98856 23.52 2.01256 23.544 2.06056 23.592C1.46856 23.576 1.17256 23.312 1.17256 22.8C1.22056 22.48 1.43656 21.952 1.82056 21.216C2.20456 20.464 2.72456 19.112 3.38056 17.16C2.38856 17.16 1.50056 16.864 0.716563 16.272L1.22056 15.384C1.90856 15.832 2.74856 16.056 3.74056 16.056C4.66856 13.784 5.84456 12.08 7.26856 10.944C8.69256 9.808 10.1806 9.24 11.7326 9.24C12.4686 9.24 13.0606 9.432 13.5086 9.816C13.9566 10.184 14.1806 10.68 14.1806 11.304C14.1806 12.648 13.2926 13.912 11.5166 15.096C9.75656 16.264 7.74856 16.92 5.49256 17.064C4.75656 19.4 3.93256 20.992 3.02056 21.84C3.42056 21.792 3.97256 21.768 4.67656 21.768ZM10.4126 10.536C9.42056 10.536 8.50056 11.04 7.65256 12.048C6.80456 13.056 6.19656 14.36 5.82856 15.96C7.42856 15.848 8.82856 15.368 10.0286 14.52C11.2286 13.672 11.8286 12.784 11.8286 11.856C11.8286 11.488 11.6926 11.176 11.4206 10.92C11.1486 10.664 10.8126 10.536 10.4126 10.536ZM24.9579 21.576L25.5099 21.984C25.2859 22.464 24.8699 22.92 24.2619 23.352C23.6699 23.784 23.1259 24 22.6299 24C21.6859 24 21.2139 23.504 21.2139 22.512C21.2139 22.048 21.3339 21.496 21.5739 20.856L20.6859 21.768C19.8219 22.648 19.0699 23.24 18.4299 23.544C17.8059 23.848 17.1899 24 16.5819 24C15.9739 24 15.5099 23.832 15.1899 23.496C14.8859 23.144 14.7339 22.664 14.7339 22.056C14.7339 20.936 15.1659 19.832 16.0299 18.744C16.8939 17.64 17.9979 16.744 19.3419 16.056C20.6859 15.368 22.0299 15.016 23.3739 15L23.4219 15.792L22.4139 16.008C20.9579 16.328 19.6699 16.968 18.5499 17.928C17.4459 18.888 16.8939 19.848 16.8939 20.808C16.8939 21.752 17.2779 22.224 18.0459 22.224C18.7659 22.224 19.6539 21.72 20.7099 20.712C21.7659 19.704 22.6459 18.52 23.3499 17.16L24.3579 17.76C23.3659 19.76 22.8699 21.032 22.8699 21.576C22.8699 21.8 22.9419 21.992 23.0859 22.152C23.2459 22.296 23.3979 22.368 23.5419 22.368C23.7019 22.368 23.8059 22.36 23.8539 22.344C23.9019 22.328 23.9499 22.312 23.9979 22.296C24.0459 22.264 24.1019 22.224 24.1659 22.176C24.2459 22.128 24.3099 22.08 24.3579 22.032C24.4219 21.984 24.5179 21.912 24.6459 21.816C24.7739 21.72 24.8779 21.64 24.9579 21.576ZM35.5359 21.36L36.0399 21.768C35.7679 22.44 35.3359 23.008 34.7439 23.472C34.1679 23.936 33.6399 24.168 33.1599 24.168C32.6959 24.168 32.3279 24.008 32.0559 23.688C31.7839 23.352 31.6479 22.92 31.6479 22.392C31.6479 21.864 31.7359 21.184 31.9119 20.352C31.1599 21.536 30.3519 22.464 29.4879 23.136C28.6239 23.808 27.8959 24.144 27.3039 24.144C26.4079 24.144 25.9599 23.504 25.9599 22.224C25.9599 21.136 26.3279 19.744 27.0639 18.048C27.7999 16.352 28.3359 15.368 28.6719 15.096L29.8239 15.6C29.1679 16.656 28.6719 17.696 28.3359 18.72C27.9999 19.744 27.8319 20.432 27.8319 20.784C27.8319 21.12 27.9359 21.392 28.1439 21.6C28.3679 21.808 28.6239 21.912 28.9119 21.912C29.5519 21.912 30.3439 21.328 31.2879 20.16C32.2479 18.976 33.2239 17.216 34.2159 14.88L35.4399 15.432C35.4079 15.56 35.0399 16.488 34.3359 18.216C33.6479 19.944 33.3039 20.984 33.3039 21.336C33.3039 21.672 33.3759 21.928 33.5199 22.104C33.6799 22.28 33.8319 22.368 33.9759 22.368C34.1359 22.368 34.2559 22.36 34.3359 22.344C34.4159 22.328 34.4959 22.296 34.5759 22.248C34.6559 22.2 34.7199 22.16 34.7679 22.128C34.8319 22.096 34.9039 22.04 34.9839 21.96L35.1759 21.792C35.2079 21.744 35.2639 21.672 35.3439 21.576C35.4399 21.464 35.5039 21.392 35.5359 21.36ZM46.5382 21.096L47.0422 21.48C46.6902 22.184 46.2022 22.776 45.5782 23.256C44.9702 23.736 44.4182 23.976 43.9222 23.976C43.4262 23.976 43.0342 23.832 42.7462 23.544C42.4582 23.256 42.3142 22.896 42.3142 22.464C42.3142 22.032 42.5862 21.28 43.1302 20.208C43.6902 19.12 43.9702 18.32 43.9702 17.808C43.9702 17.584 43.8742 17.384 43.6822 17.208C43.5062 17.016 43.2902 16.92 43.0342 16.92C42.2182 16.92 41.3942 17.544 40.5622 18.792C39.7302 20.024 38.8022 21.808 37.7782 24.144L36.3382 23.64C36.6422 21.784 37.0742 19.976 37.6342 18.216C38.2102 16.44 38.7382 15.168 39.2182 14.4L40.2022 14.712C39.7542 15.848 39.1862 17.808 38.4982 20.592C40.7062 16.816 42.7382 14.928 44.5942 14.928C44.9942 14.928 45.3222 15.064 45.5782 15.336C45.8502 15.608 45.9862 15.928 45.9862 16.296C45.9862 16.664 45.9382 17 45.8422 17.304C45.7462 17.592 45.4422 18.28 44.9302 19.368C44.4342 20.44 44.1862 21.112 44.1862 21.384C44.1862 21.656 44.2662 21.872 44.4262 22.032C44.5862 22.176 44.7382 22.248 44.8822 22.248C45.0262 22.248 45.1462 22.224 45.2422 22.176C45.3382 22.128 45.4422 22.056 45.5542 21.96C45.6822 21.864 45.7942 21.776 45.8902 21.696C45.9862 21.616 46.0982 21.512 46.2262 21.384C46.3702 21.24 46.4742 21.144 46.5382 21.096ZM61.151 6.264L62.375 6.696L62.039 7.32C60.279 10.6 58.783 13.776 57.551 16.848C56.735 18.864 56.327 20.376 56.327 21.384C56.327 21.64 56.391 21.848 56.519 22.008C56.647 22.152 56.847 22.224 57.119 22.224C57.407 22.224 57.735 22.04 58.103 21.672L58.535 22.08C58.327 22.544 57.967 22.976 57.455 23.376C56.943 23.76 56.447 23.952 55.967 23.952C55.039 23.952 54.575 23.408 54.575 22.32C54.575 21.68 54.751 20.696 55.103 19.368C53.215 22.664 51.367 24.312 49.559 24.312C48.935 24.312 48.439 24.12 48.071 23.736C47.703 23.352 47.519 22.832 47.519 22.176C47.519 21.136 47.935 20.056 48.767 18.936C49.599 17.816 50.623 16.904 51.839 16.2C53.055 15.48 54.191 15.12 55.247 15.12L55.319 15.96C53.943 16.136 52.655 16.736 51.455 17.76C50.271 18.768 49.679 19.8 49.679 20.856C49.679 21.304 49.799 21.664 50.039 21.936C50.279 22.192 50.591 22.32 50.975 22.32C51.759 22.32 52.783 21.48 54.047 19.8C54.511 19.192 55.039 18.304 55.631 17.136C56.239 15.968 56.719 15.032 57.071 14.328C57.439 13.608 57.791 12.912 58.127 12.24C58.479 11.552 58.935 10.656 59.495 9.552C60.055 8.432 60.607 7.336 61.151 6.264ZM67.7413 15.504C68.1413 15.504 68.4693 15.64 68.7253 15.912C68.9813 16.184 69.1093 16.536 69.1093 16.968C69.1093 17.832 68.6133 18.744 67.6213 19.704L67.0453 19.248C67.2693 18.752 67.3813 18.392 67.3813 18.168C67.3813 17.736 67.1413 17.52 66.6613 17.52C66.1813 17.52 65.7253 17.824 65.2933 18.432C64.8613 19.04 64.3493 19.984 63.7573 21.264C63.1813 22.528 62.7413 23.424 62.4373 23.952L61.0693 23.352C61.9493 21.352 62.4533 20.176 62.5813 19.824C63.0133 18.576 63.2293 16.992 63.2293 15.072L64.5733 14.712C64.5253 15.752 64.4533 16.56 64.3573 17.136C64.2613 17.696 64.0293 18.616 63.6613 19.896C65.2773 16.968 66.6373 15.504 67.7413 15.504ZM78.7368 22.488L78.8088 23.112C78.7448 23.16 78.0008 23.448 76.5768 23.976C76.3848 25.032 76.1368 26.072 75.8328 27.096C75.5448 28.136 75.2488 28.92 74.9448 29.448C74.6568 29.992 74.3128 30.528 73.9128 31.056C73.1128 32.112 72.0328 32.64 70.6728 32.64C70.0008 32.64 69.4648 32.432 69.0648 32.016C68.6648 31.6 68.4648 31.032 68.4648 30.312C68.4648 27.544 70.7848 25.32 75.4248 23.64L76.7208 19.08C75.3448 21.144 74.1048 22.416 73.0008 22.896C72.4568 23.152 71.8808 23.28 71.2728 23.28C70.6808 23.28 70.2008 23.088 69.8328 22.704C69.4808 22.32 69.3048 21.76 69.3048 21.024C69.3048 20.288 69.5528 19.264 70.0488 17.952C70.5608 16.624 71.1288 15.512 71.7528 14.616L72.9288 15.12C72.8808 15.168 72.6568 15.592 72.2568 16.392C71.5528 17.848 71.2008 18.928 71.2008 19.632C71.2008 20.336 71.3368 20.808 71.6088 21.048C71.8808 21.288 72.2808 21.408 72.8088 21.408C73.3368 21.408 73.9288 21.096 74.5848 20.472C75.2568 19.832 76.2888 18.576 77.6808 16.704L78.5448 17.208C78.4168 17.736 78.1288 18.696 77.6808 20.088C77.2488 21.464 76.9528 22.52 76.7928 23.256L78.7368 22.488ZM75.2808 24.36C74.2728 24.824 73.3848 25.352 72.6168 25.944C71.1768 27.032 70.4568 28.088 70.4568 29.112C70.4568 29.496 70.5688 29.808 70.7928 30.048C71.0168 30.288 71.2968 30.408 71.6328 30.408C73.2328 30.408 74.4488 28.392 75.2808 24.36ZM99.0689 26.472L98.7809 27.36C98.3649 27.392 98.0529 27.408 97.8449 27.408C96.8849 27.408 96.1009 27 95.4929 26.184C94.9009 25.384 94.6049 24.336 94.6049 23.04C94.6049 22.256 94.7809 20.776 95.1329 18.6C95.5009 16.408 95.9249 14.408 96.4049 12.6C96.5009 12.2 96.5489 11.936 96.5489 11.808C96.5489 11.68 96.4929 11.616 96.3809 11.616C96.2689 11.616 95.9089 12.216 95.3009 13.416C94.7089 14.6 93.9969 16.064 93.1649 17.808C92.3329 19.536 91.8529 20.528 91.7249 20.784C91.6129 21.024 91.5169 21.224 91.4369 21.384C91.3729 21.528 91.2289 21.8 91.0049 22.2C90.7969 22.584 90.5969 22.928 90.4049 23.232C89.8769 24.032 89.4609 24.432 89.1569 24.432C88.9489 24.432 88.7169 24.376 88.4609 24.264C88.2209 24.152 88.0609 24.032 87.9809 23.904C87.8049 23.632 87.7169 22.784 87.7169 21.36C87.7169 18.384 87.9569 15.544 88.4369 12.84C88.5969 11.944 88.6769 11.472 88.6769 11.424C88.6769 11.264 88.6129 11.184 88.4849 11.184C88.2289 11.184 87.8209 11.984 87.2609 13.584L86.5649 15.576C85.5409 18.472 84.5009 20.728 83.4449 22.344C82.4049 23.96 81.2049 25.096 79.8449 25.752L79.2209 24.432C80.7729 23.28 81.9649 22.104 82.7969 20.904C83.6449 19.704 84.5649 17.768 85.5569 15.096L86.3729 12.912C86.9329 11.392 87.4209 10.312 87.8369 9.672C88.2529 9.016 88.7169 8.688 89.2289 8.688C90.0769 8.688 90.5009 9.2 90.5009 10.224C90.5009 10.304 90.3489 11.928 90.0449 15.096C89.7409 18.248 89.5889 20.328 89.5889 21.336C89.5889 21.624 89.6369 21.776 89.7329 21.792C89.8129 21.792 89.9009 21.712 89.9969 21.552C91.2929 19.392 92.5329 17.04 93.7169 14.496C93.8609 14.176 94.1089 13.624 94.4609 12.84C94.8129 12.056 95.1569 11.36 95.4929 10.752C95.8289 10.144 96.0849 9.776 96.2609 9.648C96.4369 9.504 96.7169 9.432 97.1009 9.432C97.4849 9.432 97.8129 9.576 98.0849 9.864C98.3729 10.136 98.5169 10.464 98.5169 10.848C98.5169 11.232 98.4609 11.672 98.3489 12.168C97.1009 18.264 96.4769 21.912 96.4769 23.112C96.4769 24.296 96.6689 25.104 97.0529 25.536C97.4369 25.984 98.1089 26.296 99.0689 26.472ZM109.356 21.576L109.908 21.984C109.684 22.464 109.268 22.92 108.66 23.352C108.068 23.784 107.524 24 107.028 24C106.084 24 105.612 23.504 105.612 22.512C105.612 22.048 105.732 21.496 105.972 20.856L105.084 21.768C104.22 22.648 103.468 23.24 102.828 23.544C102.204 23.848 101.588 24 100.98 24C100.372 24 99.9083 23.832 99.5883 23.496C99.2843 23.144 99.1323 22.664 99.1323 22.056C99.1323 20.936 99.5643 19.832 100.428 18.744C101.292 17.64 102.396 16.744 103.74 16.056C105.084 15.368 106.428 15.016 107.772 15L107.82 15.792L106.812 16.008C105.356 16.328 104.068 16.968 102.948 17.928C101.844 18.888 101.292 19.848 101.292 20.808C101.292 21.752 101.676 22.224 102.444 22.224C103.164 22.224 104.052 21.72 105.108 20.712C106.164 19.704 107.044 18.52 107.748 17.16L108.756 17.76C107.764 19.76 107.268 21.032 107.268 21.576C107.268 21.8 107.34 21.992 107.484 22.152C107.644 22.296 107.796 22.368 107.94 22.368C108.1 22.368 108.204 22.36 108.252 22.344C108.3 22.328 108.348 22.312 108.396 22.296C108.444 22.264 108.5 22.224 108.564 22.176C108.644 22.128 108.708 22.08 108.756 22.032C108.82 21.984 108.916 21.912 109.044 21.816C109.172 21.72 109.276 21.64 109.356 21.576ZM117.03 15.504C117.43 15.504 117.758 15.64 118.014 15.912C118.27 16.184 118.398 16.536 118.398 16.968C118.398 17.832 117.902 18.744 116.91 19.704L116.334 19.248C116.558 18.752 116.67 18.392 116.67 18.168C116.67 17.736 116.43 17.52 115.95 17.52C115.47 17.52 115.014 17.824 114.582 18.432C114.15 19.04 113.638 19.984 113.046 21.264C112.47 22.528 112.03 23.424 111.726 23.952L110.358 23.352C111.238 21.352 111.742 20.176 111.87 19.824C112.302 18.576 112.518 16.992 112.518 15.072L113.862 14.712C113.814 15.752 113.742 16.56 113.646 17.136C113.55 17.696 113.318 18.616 112.95 19.896C114.566 16.968 115.926 15.504 117.03 15.504ZM124.458 21.312L124.986 21.912C124.586 22.536 124.098 23.024 123.522 23.376C122.962 23.728 122.394 23.904 121.818 23.904C121.242 23.904 120.786 23.744 120.45 23.424C120.114 23.088 119.946 22.632 119.946 22.056C119.946 20.712 120.45 18.856 121.458 16.488C120.642 16.616 119.826 16.808 119.01 17.064L118.842 16.128L118.818 16.104C119.618 15.768 120.666 15.496 121.962 15.288C122.09 15.048 122.378 14.464 122.826 13.536C123.722 11.696 124.362 10.504 124.746 9.96L125.778 10.368C125.618 10.72 125.338 11.312 124.938 12.144C124.538 12.96 124.09 13.888 123.594 14.928C124.314 14.88 124.882 14.856 125.298 14.856C125.714 14.856 126.034 14.92 126.258 15.048V16.08C126.034 16.032 125.706 16.008 125.274 16.008C124.858 16.008 124.106 16.08 123.018 16.224C122.074 18.336 121.602 19.872 121.602 20.832C121.602 21.2 121.714 21.504 121.938 21.744C122.178 21.984 122.49 22.104 122.874 22.104C123.274 22.104 123.802 21.84 124.458 21.312Z" fill="#1C1C1C"/>
</svg>
