<svg width="15" height="15" viewBox="0 0 15 15" fill="none" xmlns="http://www.w3.org/2000/svg">
<path d="M14.5 7.65909C14.5 7.13636 14.4545 6.63636 14.3727 6.15909H7.5V8.99545H11.4455C11.2636 9.95455 10.7182 10.7636 9.90909 11.3091V13.2364H12.2955C13.7 11.8909 14.5 9.95455 14.5 7.65909Z" fill="#4285F4"/>
<path d="M7.5 15C9.55 15 11.2636 14.3136 12.2955 13.2364L9.90909 11.3091C9.24545 11.7591 8.39091 12.0227 7.5 12.0227C5.51818 12.0227 3.84091 10.6545 3.26364 8.84091H0.8V10.8273C1.82727 12.8727 4.00909 15 7.5 15Z" fill="#34A853"/>
<path d="M3.26364 8.84091C3.11364 8.39091 3.02727 7.90909 3.02727 7.5C3.02727 7.09091 3.11364 6.60909 3.26364 6.15909V4.17273H0.8C0.290909 5.18182 0 6.31818 0 7.5C0 8.68182 0.290909 9.81818 0.8 10.8273L3.26364 8.84091Z" fill="#FBBC05"/>
<path d="M7.5 2.97727C8.47727 2.97727 9.35 3.31818 10.0409 3.97727L12.35 1.66818C11.2591 0.636364 9.54545 0 7.5 0C4.00909 0 1.82727 2.12727 0.8 4.17273L3.26364 6.15909C3.84091 4.34545 5.51818 2.97727 7.5 2.97727Z" fill="#EA4335"/>
</svg>
